# xmcd
#
# Track frame offsets:
#	150
#	21066
#	36369
#	56248
#	73988
#	89929
#	107520
#	119124
#	133153
#	147345
#	161511
#	174853
#	190344
#	203960
#	219414
#	235867
#	256146
#	273674
#	292652
#	318092
#
# Disc length: 4349 seconds
#
# Revision: 0
# Processed by: cddbd v1.5.2PL0 Copyright (c) Steve Scherf et al.
# Submitted via: EasyCDDAExtractor 12.0.1.1
#
DISCID=3610fb14
DTITLE=Nitty Gritty Dirt Band - Will The Circle Be Unbroken, Vol. 2
DYEAR=1989
DGENRE=Country
TTITLE0=Life's Railway To Heaven
TTITLE1=Grandpa Was A Carpenter
TTITLE2=When I Get My Rewards
TTITLE3=Don't You Hear Jerusalem Moan
TTITLE4=Little Mountain Church House
TTITLE5=And So It Goes
TTITLE6=When It's Gone
TTITLE7=Mary Danced With Soldiers
TTITLE8=Riding Alone
TTITLE9=I'm Sittin' On Top Of The World
TTITLE10=Lovin' On The Side
TTITLE11=Lost River
TTITLE12=Bayou Jubilee
TTITLE13=Blues Berry Hill
TTITLE14=Turn Of The Century
TTITLE15=One Step Over The Line
TTITLE16=You Ain't Going Nowhere
TTITLE17=The Valley Road
TTITLE18=Will The Circle Be Unbroken
TTITLE19=Amazing Grace
EXTD=ID3G:   2\n
EXTT0=
EXTT1=
EXTT2=
EXTT3=
EXTT4=
EXTT5=
EXTT6=
EXTT7=
EXTT8=
EXTT9=
EXTT10=
EXTT11=
EXTT12=
EXTT13=
EXTT14=
EXTT15=
EXTT16=
EXTT17=
EXTT18=
EXTT19=
PLAYORDER=
